<?xml version="1.0" encoding="UTF-8"?>
<svg xmlns="http://www.w3.org/2000/svg" xmlns:xlink="http://www.w3.org/1999/xlink" width="313.84pt" height="387.38pt" viewBox="0 0 313.84 387.38" version="1.1">
<defs>
<clipPath id="clip1">
  <path d="M 0 0 L 313.839844 0 L 313.839844 387.378906 L 0 387.378906 Z M 0 0 "/>
</clipPath>
</defs>
<g id="surface1">
<g clip-path="url(#clip1)" clip-rule="nonzero">
<path style=" stroke:none;fill-rule:nonzero;fill:rgb(0.799561%,1.199341%,1.199341%);fill-opacity:1;" d="M 156.902344 387.378906 L 149.996094 383.253906 C 149.683594 383.082031 149.378906 382.898438 149.078125 382.707031 C 104.539063 356.097656 69.296875 320.453125 44.328125 276.757813 C 24.382813 241.859375 10.984375 201.867188 4.496094 157.886719 C -6.480469 83.484375 6.027344 23.804688 6.566406 21.300781 L 11.140625 -0.00390625 L 29.015625 12.554688 C 29.261719 12.730469 54.132813 29.941406 87.199219 29.941406 C 129.375 29.941406 145.003906 14.355469 145.929688 13.390625 L 156.917969 0.230469 L 167.652344 13.085938 C 167.769531 13.214844 167.882813 13.347656 167.996094 13.484375 C 169.585938 15.085938 185.460938 29.941406 226.640625 29.941406 C 259.703125 29.941406 284.574219 12.730469 284.824219 12.554688 L 302.648438 0.03125 L 307.269531 21.300781 C 307.808594 23.804688 320.316406 83.484375 309.339844 157.886719 C 302.855469 201.867188 289.453125 241.859375 269.507813 276.757813 C 244.539063 320.453125 209.296875 356.097656 164.753906 382.707031 C 164.453125 382.90625 164.140625 383.089844 163.820313 383.265625 L 156.902344 387.378906 "/>
</g>
<path style=" stroke:none;fill-rule:nonzero;fill:rgb(100%,76.499939%,8.198547%);fill-opacity:1;" d="M 156.90625 377.308594 L 154.207031 375.6875 C 154.039063 375.597656 153.878906 375.5 153.722656 375.398438 C 110.378906 349.546875 76.105469 314.917969 51.84375 272.464844 C 32.4375 238.507813 19.386719 199.53125 13.058594 156.621094 C 2.308594 83.753906 14.503906 25.558594 15.027344 23.117188 L 16.867188 14.550781 L 24.019531 19.628906 C 24.285156 19.816406 51.160156 38.597656 87.199219 38.597656 C 135.378906 38.597656 152.324219 19.234375 152.492188 19.039063 L 156.894531 13.835938 L 161.085938 18.730469 C 161.21875 18.875 161.347656 19.023438 161.46875 19.175781 C 163.089844 20.925781 180.613281 38.597656 226.636719 38.597656 C 262.679688 38.597656 289.550781 19.816406 289.820313 19.628906 L 296.960938 14.558594 L 298.808594 23.117188 C 299.332031 25.558594 311.53125 83.753906 300.78125 156.621094 C 294.449219 199.53125 281.398438 238.507813 261.996094 272.464844 C 237.738281 314.910156 203.46875 349.535156 160.132813 375.386719 C 159.960938 375.503906 159.777344 375.609375 159.59375 375.707031 L 156.90625 377.308594 "/>
<path style=" stroke:none;fill-rule:nonzero;fill:rgb(0.799561%,1.199341%,1.199341%);fill-opacity:1;" d="M 156.90625 22.726563 C 156.90625 22.726563 174.539063 44.367188 226.636719 44.367188 C 265.113281 44.367188 293.164063 24.328125 293.164063 24.328125 C 293.164063 24.328125 343.664063 259.445313 156.90625 370.59375 L 156.933594 370.59375 C -29.824219 259.445313 20.671875 24.328125 20.671875 24.328125 C 20.671875 24.328125 48.726563 44.367188 87.199219 44.367188 C 139.300781 44.367188 156.933594 22.726563 156.933594 22.726563 L 156.90625 22.726563 "/>
<path style=" stroke:none;fill-rule:nonzero;fill:rgb(100%,76.499939%,8.198547%);fill-opacity:1;" d="M 156.933594 45.195313 L 185.601563 133.421875 L 278.367188 133.421875 L 203.316406 187.949219 L 231.984375 276.179688 L 156.933594 221.652344 L 81.882813 276.179688 L 110.546875 187.949219 L 35.496094 133.421875 L 128.265625 133.421875 L 156.933594 45.195313 "/>
<path style=" stroke:none;fill-rule:nonzero;fill:rgb(100%,76.499939%,8.198547%);fill-opacity:1;" d="M 220.082031 199.824219 C 227.753906 191.207031 232.277344 180.851563 232.277344 169.671875 C 232.277344 158.8125 228.007813 148.730469 220.730469 140.261719 L 220.773438 140.242188 L 219.464844 138.835938 C 216.730469 135.859375 213.613281 133.101563 210.175781 130.59375 C 210.109375 130.542969 210.035156 130.496094 209.964844 130.445313 C 209.289063 129.957031 208.597656 129.476563 207.898438 129.007813 C 207.679688 128.863281 207.460938 128.71875 207.242188 128.574219 C 206.519531 128.097656 205.789063 127.632813 205.039063 127.179688 C 204.859375 127.070313 204.671875 126.964844 204.492188 126.855469 C 203.777344 126.429688 203.050781 126.011719 202.3125 125.605469 C 202.1875 125.535156 202.066406 125.464844 201.941406 125.398438 C 201.132813 124.957031 200.3125 124.535156 199.480469 124.121094 C 199.265625 124.011719 199.050781 123.902344 198.832031 123.796875 C 198.023438 123.402344 197.203125 123.019531 196.367188 122.644531 C 196.136719 122.539063 195.898438 122.4375 195.664063 122.335938 C 194.816406 121.964844 193.960938 121.601563 193.089844 121.253906 C 192.910156 121.183594 192.726563 121.113281 192.542969 121.042969 C 191.78125 120.746094 191.003906 120.457031 190.222656 120.175781 C 189.980469 120.089844 189.738281 120 189.496094 119.914063 C 188.640625 119.617188 187.773438 119.332031 186.898438 119.058594 C 186.59375 118.960938 186.285156 118.867188 185.976563 118.773438 C 185.113281 118.511719 184.246094 118.261719 183.367188 118.019531 C 183.0625 117.9375 182.753906 117.859375 182.445313 117.78125 C 181.691406 117.585938 180.933594 117.398438 180.167969 117.21875 C 179.816406 117.136719 179.464844 117.054688 179.109375 116.976563 C 178.308594 116.800781 177.5 116.632813 176.6875 116.476563 C 176.339844 116.40625 175.988281 116.339844 175.636719 116.273438 C 174.742188 116.109375 173.839844 115.957031 172.929688 115.816406 C 172.570313 115.761719 172.210938 115.710938 171.847656 115.660156 C 170.917969 115.523438 169.984375 115.402344 169.042969 115.292969 C 168.75 115.261719 168.457031 115.234375 168.167969 115.203125 C 167.34375 115.117188 166.511719 115.039063 165.675781 114.972656 C 165.386719 114.949219 165.097656 114.921875 164.804688 114.902344 C 164.039063 114.847656 163.273438 114.796875 162.5 114.761719 C 162.398438 114.757813 162.296875 114.757813 162.195313 114.757813 C 160.632813 114.683594 159.0625 114.636719 157.476563 114.636719 C 157.472656 114.636719 157.46875 114.632813 157.464844 114.632813 C 157.464844 114.632813 157.460938 114.636719 157.457031 114.636719 C 156.039063 114.636719 154.632813 114.671875 153.230469 114.726563 C 153.203125 114.726563 153.171875 114.726563 153.144531 114.730469 C 152.242188 114.769531 151.347656 114.820313 150.453125 114.882813 C 150.03125 114.910156 149.605469 114.945313 149.1875 114.976563 C 148.378906 115.042969 147.578125 115.117188 146.777344 115.203125 C 146.242188 115.257813 145.710938 115.320313 145.183594 115.386719 C 144.605469 115.457031 144.03125 115.53125 143.460938 115.609375 C 142.835938 115.695313 142.21875 115.789063 141.601563 115.886719 C 140.945313 115.988281 140.292969 116.097656 139.644531 116.214844 C 139.144531 116.304688 138.644531 116.398438 138.148438 116.496094 C 137.445313 116.632813 136.746094 116.777344 136.050781 116.929688 C 135.5 117.050781 134.953125 117.175781 134.40625 117.308594 C 133.882813 117.433594 133.359375 117.5625 132.839844 117.695313 C 132.238281 117.847656 131.640625 118.007813 131.046875 118.171875 C 130.429688 118.34375 129.816406 118.519531 129.207031 118.699219 C 128.78125 118.828125 128.355469 118.957031 127.933594 119.089844 C 127.152344 119.335938 126.378906 119.59375 125.613281 119.855469 C 125.238281 119.984375 124.871094 120.121094 124.5 120.253906 C 123.878906 120.480469 123.257813 120.710938 122.644531 120.949219 C 122.25 121.101563 121.855469 121.253906 121.460938 121.414063 C 120.773438 121.691406 120.089844 121.980469 119.414063 122.273438 C 119.101563 122.410156 118.789063 122.546875 118.476563 122.6875 C 117.699219 123.035156 116.929688 123.394531 116.167969 123.765625 C 115.886719 123.902344 115.609375 124.042969 115.335938 124.183594 C 114.632813 124.535156 113.9375 124.894531 113.253906 125.261719 C 113.007813 125.394531 112.761719 125.527344 112.519531 125.664063 C 111.847656 126.035156 111.191406 126.414063 110.539063 126.800781 C 110.292969 126.945313 110.042969 127.09375 109.796875 127.242188 C 109.085938 127.675781 108.386719 128.117188 107.695313 128.570313 C 107.4375 128.738281 107.1875 128.910156 106.929688 129.082031 C 106.300781 129.503906 105.679688 129.933594 105.070313 130.375 C 104.96875 130.449219 104.859375 130.519531 104.757813 130.59375 C 101.253906 133.148438 98.085938 135.96875 95.3125 139.011719 L 93.839844 140.613281 L 93.886719 140.632813 C 86.800781 149.023438 82.65625 158.972656 82.65625 169.671875 C 82.65625 180.699219 87.054688 190.929688 94.539063 199.476563 L 94.496094 199.492188 L 95.566406 200.617188 C 98.277344 203.554688 101.359375 206.277344 104.757813 208.753906 C 104.9375 208.886719 105.128906 209.007813 105.308594 209.136719 C 105.820313 209.503906 106.339844 209.863281 106.867188 210.222656 C 107.136719 210.402344 107.402344 210.585938 107.675781 210.765625 C 108.371094 211.222656 109.078125 211.667969 109.800781 212.105469 C 110.042969 212.253906 110.289063 212.398438 110.53125 212.542969 C 111.191406 212.933594 111.855469 213.316406 112.53125 213.6875 C 112.691406 213.777344 112.851563 213.871094 113.015625 213.960938 C 113.816406 214.398438 114.632813 214.816406 115.460938 215.226563 C 115.695313 215.347656 115.929688 215.464844 116.164063 215.578125 C 117.003906 215.984375 117.847656 216.382813 118.707031 216.765625 C 118.878906 216.84375 119.054688 216.917969 119.230469 216.992188 C 120.007813 217.335938 120.796875 217.667969 121.597656 217.988281 C 121.789063 218.066406 121.976563 218.144531 122.167969 218.21875 C 123.066406 218.574219 123.972656 218.910156 124.890625 219.238281 C 125.121094 219.320313 125.355469 219.398438 125.589844 219.480469 C 126.535156 219.808594 127.484375 220.128906 128.449219 220.425781 C 128.53125 220.449219 128.613281 220.472656 128.691406 220.496094 C 129.605469 220.777344 130.53125 221.039063 131.460938 221.292969 C 131.699219 221.359375 131.9375 221.425781 132.175781 221.488281 C 133.140625 221.742188 134.113281 221.984375 135.097656 222.210938 C 135.324219 222.261719 135.558594 222.3125 135.789063 222.363281 C 136.6875 222.5625 137.597656 222.75 138.511719 222.925781 C 138.675781 222.957031 138.839844 222.992188 139.003906 223.023438 C 140.015625 223.210938 141.039063 223.382813 142.066406 223.539063 C 142.335938 223.582031 142.605469 223.621094 142.875 223.660156 C 143.90625 223.808594 144.941406 223.945313 145.988281 224.066406 C 146.171875 224.085938 146.355469 224.101563 146.539063 224.121094 C 147.492188 224.226563 148.449219 224.3125 149.410156 224.386719 C 149.640625 224.40625 149.867188 224.425781 150.097656 224.441406 C 151.164063 224.519531 152.238281 224.578125 153.320313 224.621094 C 153.570313 224.632813 153.820313 224.640625 154.066406 224.648438 C 155.195313 224.6875 156.328125 224.710938 157.464844 224.710938 L 157.472656 224.710938 C 157.472656 224.710938 157.476563 224.710938 157.476563 224.710938 C 158.621094 224.710938 159.753906 224.6875 160.886719 224.648438 C 161.121094 224.640625 161.355469 224.632813 161.589844 224.625 C 162.679688 224.582031 163.765625 224.519531 164.839844 224.441406 C 165.054688 224.429688 165.265625 224.410156 165.480469 224.394531 C 166.5 224.3125 167.511719 224.222656 168.519531 224.109375 C 168.640625 224.097656 168.765625 224.085938 168.886719 224.074219 C 169.964844 223.953125 171.03125 223.8125 172.09375 223.65625 C 172.324219 223.621094 172.554688 223.589844 172.785156 223.550781 C 173.839844 223.390625 174.886719 223.21875 175.921875 223.023438 C 176.074219 222.996094 176.21875 222.964844 176.371094 222.9375 C 177.347656 222.75 178.316406 222.550781 179.277344 222.335938 C 179.429688 222.300781 179.582031 222.269531 179.734375 222.234375 C 180.757813 222 181.773438 221.75 182.777344 221.480469 C 182.972656 221.429688 183.167969 221.378906 183.363281 221.324219 C 184.386719 221.046875 185.402344 220.757813 186.402344 220.449219 C 186.445313 220.4375 186.492188 220.421875 186.539063 220.40625 C 187.519531 220.101563 188.484375 219.78125 189.445313 219.449219 C 189.597656 219.394531 189.753906 219.34375 189.910156 219.289063 C 190.871094 218.945313 191.820313 218.589844 192.757813 218.222656 C 192.917969 218.160156 193.078125 218.09375 193.238281 218.03125 C 194.191406 217.648438 195.136719 217.253906 196.066406 216.84375 C 196.070313 216.839844 196.074219 216.839844 196.078125 216.835938 C 197.003906 216.425781 197.914063 215.996094 198.8125 215.558594 C 198.984375 215.472656 199.15625 215.390625 199.328125 215.304688 C 200.191406 214.875 201.039063 214.4375 201.875 213.980469 C 202.03125 213.898438 202.1875 213.808594 202.339844 213.722656 C 203.09375 213.308594 203.835938 212.882813 204.570313 212.445313 C 204.699219 212.367188 204.835938 212.292969 204.96875 212.210938 C 205.738281 211.742188 206.496094 211.261719 207.242188 210.773438 C 207.460938 210.628906 207.683594 210.480469 207.902344 210.335938 C 208.617188 209.855469 209.320313 209.367188 210.007813 208.871094 C 210.0625 208.828125 210.121094 208.792969 210.175781 208.753906 C 213.253906 206.511719 216.066406 204.0625 218.585938 201.441406 L 220.128906 199.84375 L 220.082031 199.824219 "/>
<path style=" stroke:none;fill-rule:nonzero;fill:rgb(14.498901%,56.498718%,81.199646%);fill-opacity:1;" d="M 208.695313 168.070313 C 208.480469 160.058594 206.683594 152.46875 203.605469 145.660156 C 209.121094 144.503906 213.867188 143.136719 217.636719 141.601563 C 224.527344 149.308594 228.625 158.371094 229.03125 168.070313 L 208.695313 168.070313 "/>
<path style=" stroke:none;fill-rule:nonzero;fill:rgb(14.498901%,56.498718%,81.199646%);fill-opacity:1;" d="M 155.328125 149.824219 L 155.328125 168.070313 L 136.675781 168.070313 C 136.761719 161.40625 137.355469 155.054688 138.382813 149.25 C 143.792969 149.597656 149.472656 149.792969 155.328125 149.824219 "/>
<path style=" stroke:none;fill-rule:nonzero;fill:rgb(14.498901%,56.498718%,81.199646%);fill-opacity:1;" d="M 155.328125 171.277344 L 155.328125 190.589844 C 149.539063 190.621094 143.929688 190.8125 138.574219 191.152344 C 137.429688 185.0625 136.746094 178.34375 136.671875 171.277344 L 155.328125 171.277344 "/>
<path style=" stroke:none;fill-rule:nonzero;fill:rgb(14.498901%,56.498718%,81.199646%);fill-opacity:1;" d="M 158.535156 190.589844 L 158.535156 171.277344 L 178.257813 171.277344 C 178.167969 178.375 177.492188 185.117188 176.34375 191.222656 C 170.671875 190.84375 164.703125 190.625 158.535156 190.589844 "/>
<path style=" stroke:none;fill-rule:nonzero;fill:rgb(14.498901%,56.498718%,81.199646%);fill-opacity:1;" d="M 158.535156 168.070313 L 158.535156 149.824219 C 164.777344 149.789063 170.808594 149.566406 176.539063 149.179688 C 177.578125 155.003906 178.191406 161.378906 178.261719 168.070313 L 158.535156 168.070313 "/>
<path style=" stroke:none;fill-rule:nonzero;fill:rgb(14.498901%,56.498718%,81.199646%);fill-opacity:1;" d="M 135.167969 149.023438 C 134.152344 154.929688 133.5625 161.34375 133.46875 168.070313 L 109.445313 168.070313 C 109.664063 160.320313 111.453125 153.007813 114.488281 146.480469 C 120.664063 147.585938 127.632813 148.449219 135.167969 149.023438 "/>
<path style=" stroke:none;fill-rule:nonzero;fill:rgb(14.498901%,56.498718%,81.199646%);fill-opacity:1;" d="M 133.46875 171.277344 C 133.558594 178.402344 134.21875 185.179688 135.355469 191.378906 C 127.9375 191.9375 121.066406 192.777344 114.957031 193.851563 C 111.640625 187.078125 109.675781 179.417969 109.445313 171.277344 L 133.46875 171.277344 "/>
<path style=" stroke:none;fill-rule:nonzero;fill:rgb(14.498901%,56.498718%,81.199646%);fill-opacity:1;" d="M 179.566406 191.457031 C 180.707031 185.242188 181.367188 178.433594 181.464844 171.277344 L 205.488281 171.277344 C 205.257813 179.488281 203.261719 187.210938 199.890625 194.023438 C 193.828125 192.917969 186.976563 192.046875 179.566406 191.457031 "/>
<path style=" stroke:none;fill-rule:nonzero;fill:rgb(14.498901%,56.498718%,81.199646%);fill-opacity:1;" d="M 181.460938 168.070313 C 181.378906 161.316406 180.785156 154.871094 179.753906 148.941406 C 187.285156 148.335938 194.230469 147.441406 200.359375 146.304688 C 203.445313 152.871094 205.269531 160.25 205.488281 168.070313 L 181.460938 168.070313 "/>
<path style=" stroke:none;fill-rule:nonzero;fill:rgb(14.498901%,56.498718%,81.199646%);fill-opacity:1;" d="M 111.234375 145.863281 C 108.210938 152.617188 106.449219 160.136719 106.238281 168.070313 L 85.902344 168.070313 C 86.304688 158.507813 90.292969 149.554688 97.011719 141.914063 C 100.875 143.410156 105.683594 144.738281 111.234375 145.863281 "/>
<path style=" stroke:none;fill-rule:nonzero;fill:rgb(14.498901%,56.498718%,81.199646%);fill-opacity:1;" d="M 106.238281 171.277344 C 106.460938 179.597656 108.398438 187.453125 111.699219 194.460938 C 106.289063 195.535156 101.574219 196.804688 97.730469 198.230469 C 90.582031 190.417969 86.316406 181.175781 85.902344 171.277344 L 106.238281 171.277344 "/>
<path style=" stroke:none;fill-rule:nonzero;fill:rgb(14.498901%,56.498718%,81.199646%);fill-opacity:1;" d="M 203.140625 194.65625 C 206.496094 187.601563 208.46875 179.671875 208.695313 171.277344 L 229.03125 171.277344 C 228.609375 181.304688 224.246094 190.652344 216.925781 198.527344 C 213.171875 197.066406 208.515625 195.765625 203.140625 194.65625 "/>
<path style=" stroke:none;fill-rule:nonzero;fill:rgb(100%,76.499939%,8.198547%);fill-opacity:1;" d="M 58.011719 68.648438 L 58.011719 110.492188 L 48.8125 110.492188 L 48.8125 68.648438 L 58.011719 68.648438 "/>
<path style=" stroke:none;fill-rule:nonzero;fill:rgb(100%,76.499939%,8.198547%);fill-opacity:1;" d="M 72.371094 101.46875 L 72.371094 110.492188 L 63.167969 110.492188 L 63.167969 101.46875 L 72.371094 101.46875 "/>
<path style=" stroke:none;fill-rule:nonzero;fill:rgb(100%,76.499939%,8.198547%);fill-opacity:1;" d="M 104.308594 88.339844 C 105.359375 88.339844 106.375 88.261719 107.355469 88.105469 C 108.328125 87.949219 109.1875 87.644531 109.933594 87.195313 C 110.675781 86.746094 111.269531 86.113281 111.71875 85.292969 C 112.167969 84.472656 112.394531 83.398438 112.394531 82.070313 C 112.394531 80.742188 112.167969 79.664063 111.71875 78.84375 C 111.269531 78.023438 110.675781 77.390625 109.933594 76.941406 C 109.1875 76.492188 108.328125 76.1875 107.355469 76.03125 C 106.375 75.875 105.359375 75.796875 104.308594 75.796875 L 97.15625 75.796875 L 97.15625 88.339844 Z M 106.824219 68.648438 C 109.441406 68.648438 111.671875 69.027344 113.507813 69.789063 C 115.34375 70.550781 116.839844 71.558594 117.992188 72.808594 C 119.144531 74.058594 119.984375 75.484375 120.511719 77.085938 C 121.039063 78.6875 121.304688 80.351563 121.304688 82.070313 C 121.304688 83.75 121.039063 85.398438 120.511719 87.019531 C 119.984375 88.640625 119.144531 90.078125 117.992188 91.328125 C 116.839844 92.578125 115.34375 93.585938 113.507813 94.347656 C 111.671875 95.109375 109.441406 95.488281 106.824219 95.488281 L 97.15625 95.488281 L 97.15625 110.492188 L 87.957031 110.492188 L 87.957031 68.648438 L 106.824219 68.648438 "/>
<path style=" stroke:none;fill-rule:nonzero;fill:rgb(100%,76.499939%,8.198547%);fill-opacity:1;" d="M 120.820313 101.46875 L 120.820313 110.492188 L 111.617188 110.492188 L 111.617188 101.46875 L 120.820313 101.46875 "/>
<path style=" stroke:none;fill-rule:nonzero;fill:rgb(100%,76.499939%,8.198547%);fill-opacity:1;" d="M 195.535156 100.179688 C 196.042969 101.15625 196.71875 101.945313 197.558594 102.550781 C 198.398438 103.15625 199.382813 103.605469 200.519531 103.898438 C 201.652344 104.191406 202.824219 104.339844 204.035156 104.339844 C 204.855469 104.339844 205.734375 104.273438 206.671875 104.132813 C 207.609375 103.996094 208.488281 103.734375 209.308594 103.34375 C 210.128906 102.953125 210.8125 102.414063 211.359375 101.730469 C 211.90625 101.046875 212.179688 100.179688 212.179688 99.121094 C 212.179688 97.992188 211.820313 97.074219 211.097656 96.367188 C 210.375 95.664063 209.425781 95.078125 208.253906 94.609375 C 207.082031 94.140625 205.753906 93.730469 204.269531 93.378906 C 202.785156 93.027344 201.28125 92.636719 199.757813 92.207031 C 198.191406 91.816406 196.671875 91.339844 195.183594 90.773438 C 193.699219 90.207031 192.371094 89.472656 191.199219 88.574219 C 190.027344 87.675781 189.078125 86.550781 188.355469 85.203125 C 187.632813 83.855469 187.273438 82.226563 187.273438 80.308594 C 187.273438 78.160156 187.730469 76.296875 188.648438 74.714844 C 189.566406 73.132813 190.769531 71.8125 192.253906 70.757813 C 193.738281 69.703125 195.417969 68.921875 197.292969 68.414063 C 199.171875 67.90625 201.046875 67.652344 202.921875 67.652344 C 205.109375 67.652344 207.207031 67.894531 209.222656 68.382813 C 211.234375 68.871094 213.023438 69.664063 214.585938 70.757813 C 216.144531 71.851563 217.386719 73.246094 218.304688 74.949219 C 219.222656 76.648438 219.683594 78.710938 219.683594 81.132813 L 210.773438 81.132813 C 210.695313 79.882813 210.433594 78.84375 209.984375 78.023438 C 209.535156 77.203125 208.9375 76.558594 208.195313 76.089844 C 207.453125 75.621094 206.601563 75.289063 205.648438 75.09375 C 204.6875 74.898438 203.644531 74.800781 202.511719 74.800781 C 201.769531 74.800781 201.023438 74.878906 200.285156 75.035156 C 199.542969 75.191406 198.867188 75.464844 198.261719 75.855469 C 197.65625 76.246094 197.15625 76.734375 196.765625 77.320313 C 196.375 77.90625 196.179688 78.648438 196.179688 79.550781 C 196.179688 80.367188 196.335938 81.035156 196.652344 81.539063 C 196.960938 82.050781 197.578125 82.519531 198.496094 82.949219 C 199.414063 83.378906 200.683594 83.808594 202.304688 84.238281 C 203.925781 84.667969 206.046875 85.214844 208.664063 85.878906 C 209.445313 86.035156 210.53125 86.316406 211.917969 86.726563 C 213.304688 87.136719 214.679688 87.792969 216.050781 88.691406 C 217.417969 89.589844 218.597656 90.792969 219.59375 92.296875 C 220.589844 93.800781 221.089844 95.722656 221.089844 98.066406 C 221.089844 99.984375 220.71875 101.761719 219.976563 103.402344 C 219.234375 105.042969 218.128906 106.460938 216.664063 107.652344 C 215.199219 108.84375 213.382813 109.769531 211.214844 110.433594 C 209.046875 111.097656 206.535156 111.429688 203.683594 111.429688 C 201.378906 111.429688 199.140625 111.148438 196.972656 110.582031 C 194.804688 110.015625 192.890625 109.125 191.230469 107.914063 C 189.566406 106.703125 188.25 105.160156 187.273438 103.285156 C 186.296875 101.410156 185.828125 99.183594 185.867188 96.601563 L 194.773438 96.601563 C 194.773438 98.011719 195.027344 99.203125 195.535156 100.179688 "/>
<path style=" stroke:none;fill-rule:nonzero;fill:rgb(100%,76.499939%,8.198547%);fill-opacity:1;" d="M 233.203125 101.46875 L 233.203125 110.492188 L 224 110.492188 L 224 101.46875 L 233.203125 101.46875 "/>
<path style=" stroke:none;fill-rule:nonzero;fill:rgb(100%,76.499939%,8.198547%);fill-opacity:1;" d="M 263.257813 79.8125 C 262.707031 78.933594 262.023438 78.160156 261.203125 77.496094 C 260.382813 76.835938 259.457031 76.316406 258.421875 75.945313 C 257.386719 75.574219 256.300781 75.386719 255.167969 75.386719 C 253.097656 75.386719 251.339844 75.789063 249.894531 76.589844 C 248.449219 77.390625 247.277344 78.464844 246.378906 79.8125 C 245.476563 81.160156 244.824219 82.695313 244.414063 84.414063 C 244.003906 86.132813 243.796875 87.910156 243.796875 89.746094 C 243.796875 91.503906 244.003906 93.214844 244.414063 94.875 C 244.824219 96.535156 245.476563 98.03125 246.378906 99.359375 C 247.277344 100.6875 248.449219 101.753906 249.894531 102.550781 C 251.339844 103.351563 253.097656 103.753906 255.167969 103.753906 C 257.980469 103.753906 260.179688 102.894531 261.761719 101.175781 C 263.34375 99.457031 264.3125 97.1875 264.664063 94.375 L 273.570313 94.375 C 273.335938 96.992188 272.730469 99.359375 271.753906 101.46875 C 270.777344 103.578125 269.488281 105.375 267.886719 106.859375 C 266.285156 108.34375 264.410156 109.476563 262.261719 110.257813 C 260.109375 111.039063 257.746094 111.429688 255.167969 111.429688 C 251.964844 111.429688 249.082031 110.875 246.523438 109.761719 C 243.964844 108.648438 241.804688 107.113281 240.046875 105.160156 C 238.289063 103.207031 236.941406 100.910156 236.003906 98.273438 C 235.066406 95.636719 234.597656 92.792969 234.597656 89.746094 C 234.597656 86.621094 235.066406 83.71875 236.003906 81.042969 C 236.941406 78.367188 238.289063 76.03125 240.046875 74.039063 C 241.804688 72.046875 243.964844 70.484375 246.523438 69.351563 C 249.082031 68.21875 251.964844 67.652344 255.167969 67.652344 C 257.472656 67.652344 259.652344 67.984375 261.703125 68.648438 C 263.753906 69.3125 265.589844 70.277344 267.210938 71.546875 C 268.832031 72.816406 270.171875 74.390625 271.226563 76.265625 C 272.28125 78.140625 272.945313 80.289063 273.21875 82.714844 L 264.3125 82.714844 C 264.15625 81.660156 263.800781 80.691406 263.257813 79.8125 "/>
<path style=" stroke:none;fill-rule:nonzero;fill:rgb(100%,76.499939%,8.198547%);fill-opacity:1;" d="M 284.910156 101.46875 L 284.910156 110.492188 L 275.707031 110.492188 L 275.707031 101.46875 L 284.910156 101.46875 "/>
<path style=" stroke:none;fill-rule:nonzero;fill:rgb(100%,76.499939%,8.198547%);fill-opacity:1;" d="M 166.007813 318.433594 C 165.472656 317.367188 165.039063 316.207031 164.722656 314.933594 C 164.230469 312.925781 163.980469 310.796875 163.980469 308.546875 C 163.980469 306.484375 164.230469 304.496094 164.722656 302.578125 C 165.21875 300.664063 165.984375 298.957031 167.027344 297.464844 C 168.066406 295.972656 169.390625 294.785156 170.996094 293.898438 C 172.601563 293.015625 174.535156 292.570313 176.792969 292.570313 C 177.152344 292.570313 177.503906 292.585938 177.847656 292.613281 Z M 144.089844 321.8125 C 143.15625 322.476563 142.210938 322.984375 141.257813 323.332031 C 140.304688 323.683594 139.40625 323.90625 138.558594 323.996094 C 137.710938 324.089844 137.003906 324.136719 136.441406 324.136719 L 128.078125 324.136719 L 128.078125 293.511719 L 131.378906 293.511719 L 144.28125 321.660156 C 144.21875 321.710938 144.15625 321.765625 144.089844 321.8125 Z M 136.546875 293.511719 C 138.875 293.511719 140.835938 293.855469 142.421875 294.535156 C 144.011719 295.21875 145.308594 296.210938 146.3125 297.519531 C 147.320313 298.828125 148.042969 300.414063 148.484375 302.273438 C 148.925781 304.136719 149.148438 306.246094 149.148438 308.601563 C 149.148438 311.035156 148.910156 313.109375 148.433594 314.820313 C 148.160156 315.804688 147.835938 316.6875 147.476563 317.480469 L 136.484375 293.511719 Z M 198.082031 278.199219 L 198.082031 273.554688 L 178.285156 273.554688 L 178.285156 278.199219 L 184.457031 278.199219 L 179.792969 288.367188 C 178.835938 288.226563 177.855469 288.152344 176.847656 288.152344 C 173.953125 288.152344 171.386719 288.695313 169.144531 289.78125 C 166.902344 290.867188 165.03125 292.351563 163.53125 294.230469 C 162.03125 296.109375 160.894531 298.3125 160.117188 300.835938 C 159.339844 303.359375 158.953125 306.0625 158.953125 308.933594 C 158.953125 311.808594 159.316406 314.5 160.039063 317.003906 C 160.761719 319.511719 161.847656 321.6875 163.292969 323.527344 C 163.371094 323.625 163.464844 323.710938 163.542969 323.808594 L 156.960938 338.167969 L 149.988281 322.964844 C 151.386719 321.25 152.4375 319.167969 153.117188 316.699219 C 153.824219 314.140625 154.175781 311.203125 154.175781 307.882813 C 154.175781 301.546875 152.605469 296.828125 149.464844 293.734375 C 146.324219 290.640625 141.839844 289.089844 136.019531 289.089844 L 134.457031 289.089844 L 129.464844 278.199219 L 135.632813 278.199219 L 135.632813 273.554688 L 115.839844 273.554688 L 115.839844 278.199219 L 124.355469 278.199219 L 129.351563 289.089844 L 123.046875 289.089844 L 123.046875 328.558594 L 136.019531 328.558594 C 139.160156 328.558594 141.875 328.097656 144.171875 327.175781 C 144.9375 326.867188 145.640625 326.496094 146.316406 326.097656 L 154.382813 343.6875 L 159.539063 343.6875 L 167.183594 327.011719 C 167.683594 327.320313 168.203125 327.605469 168.746094 327.867188 C 170.933594 328.917969 173.492188 329.441406 176.421875 329.441406 C 181.257813 329.441406 185.070313 328.0625 187.859375 325.296875 C 190.648438 322.53125 192.289063 318.664063 192.78125 313.6875 L 187.753906 313.6875 C 187.648438 315.3125 187.328125 316.820313 186.800781 318.222656 C 186.269531 319.621094 185.539063 320.828125 184.601563 321.84375 C 183.667969 322.855469 182.554688 323.648438 181.269531 324.21875 C 179.980469 324.789063 178.503906 325.074219 176.847656 325.074219 C 174.585938 325.074219 172.648438 324.632813 171.023438 323.75 C 170.378906 323.398438 169.789063 322.984375 169.238281 322.535156 L 182.371094 293.882813 C 182.8125 294.117188 183.242188 294.375 183.648438 294.671875 C 185.574219 296.074219 186.816406 298.175781 187.382813 300.972656 L 192.410156 300.972656 C 192.128906 298.875 191.527344 297.023438 190.613281 295.417969 C 189.691406 293.816406 188.546875 292.480469 187.171875 291.410156 C 186.292969 290.730469 185.328125 290.164063 184.292969 289.695313 L 189.5625 278.199219 L 198.082031 278.199219 "/>
<path style=" stroke:none;fill-rule:nonzero;fill:rgb(14.498901%,56.498718%,81.199646%);fill-opacity:1;" d="M 181.9375 218.386719 C 182.066406 218.355469 182.195313 218.324219 182.324219 218.289063 C 183.242188 218.042969 184.144531 217.777344 185.042969 217.507813 C 185.292969 217.429688 185.542969 217.355469 185.789063 217.277344 C 186.648438 217.011719 187.496094 216.730469 188.335938 216.4375 C 188.347656 216.433594 188.359375 216.429688 188.371094 216.425781 C 187.816406 216.285156 187.246094 216.148438 186.652344 216.019531 C 186.261719 215.933594 185.859375 215.851563 185.457031 215.769531 C 183.960938 216.8125 182.417969 217.785156 180.820313 218.664063 C 181.191406 218.570313 181.570313 218.484375 181.9375 218.386719 "/>
<path style=" stroke:none;fill-rule:nonzero;fill:rgb(14.498901%,56.498718%,81.199646%);fill-opacity:1;" d="M 201.628906 197.621094 C 199.433594 201.613281 196.789063 205.289063 193.757813 208.550781 C 191.972656 210.472656 190.042969 212.246094 188.003906 213.871094 C 189.519531 214.21875 190.910156 214.59375 192.183594 214.996094 C 192.195313 214.988281 192.207031 214.984375 192.21875 214.980469 C 192.910156 214.699219 193.597656 214.414063 194.28125 214.117188 C 194.527344 214.007813 194.773438 213.902344 195.019531 213.792969 C 195.785156 213.453125 196.539063 213.097656 197.285156 212.734375 C 197.550781 212.605469 197.816406 212.472656 198.082031 212.339844 C 198.824219 211.972656 199.554688 211.59375 200.277344 211.203125 C 200.5 211.082031 200.714844 210.957031 200.9375 210.835938 C 201.574219 210.480469 202.207031 210.121094 202.828125 209.75 C 202.996094 209.648438 203.164063 209.554688 203.328125 209.457031 C 204.054688 209.019531 204.761719 208.566406 205.460938 208.109375 C 205.65625 207.980469 205.847656 207.851563 206.042969 207.726563 C 206.738281 207.257813 207.425781 206.78125 208.097656 206.292969 C 208.386719 206.085938 208.671875 205.871094 208.957031 205.660156 C 209.082031 205.566406 209.207031 205.476563 209.328125 205.382813 C 209.691406 205.105469 210.050781 204.824219 210.40625 204.542969 C 210.480469 204.484375 210.554688 204.429688 210.628906 204.371094 C 211.042969 204.035156 211.453125 203.695313 211.859375 203.351563 C 211.984375 203.246094 212.109375 203.136719 212.234375 203.03125 C 212.515625 202.789063 212.796875 202.542969 213.074219 202.296875 C 213.214844 202.171875 213.351563 202.046875 213.488281 201.921875 C 213.753906 201.679688 214.019531 201.4375 214.28125 201.191406 C 214.339844 201.132813 214.398438 201.078125 214.457031 201.019531 C 210.941406 199.757813 206.605469 198.613281 201.628906 197.621094 "/>
<path style=" stroke:none;fill-rule:nonzero;fill:rgb(14.498901%,56.498718%,81.199646%);fill-opacity:1;" d="M 126.605469 213.605469 C 124.6875 212.054688 122.867188 210.371094 121.175781 208.550781 C 118.097656 205.234375 115.421875 201.496094 113.203125 197.433594 C 108.1875 198.394531 103.796875 199.515625 100.191406 200.75 C 100.203125 200.761719 100.214844 200.773438 100.226563 200.785156 C 100.59375 201.136719 100.964844 201.484375 101.34375 201.828125 C 101.410156 201.894531 101.480469 201.957031 101.554688 202.019531 C 101.890625 202.324219 102.234375 202.628906 102.582031 202.929688 C 102.660156 202.996094 102.734375 203.0625 102.816406 203.128906 C 103.195313 203.457031 103.578125 203.777344 103.96875 204.09375 C 104.003906 204.121094 104.039063 204.152344 104.074219 204.179688 C 104.957031 204.894531 105.863281 205.589844 106.796875 206.269531 C 107.433594 206.730469 108.089844 207.183594 108.75 207.625 C 108.992188 207.789063 109.234375 207.953125 109.476563 208.113281 C 110.128906 208.539063 110.789063 208.957031 111.460938 209.367188 C 111.714844 209.519531 111.96875 209.667969 112.222656 209.816406 C 112.796875 210.15625 113.375 210.492188 113.964844 210.816406 C 114.246094 210.976563 114.53125 211.132813 114.820313 211.289063 C 115.457031 211.628906 116.105469 211.964844 116.757813 212.292969 C 117.035156 212.429688 117.3125 212.570313 117.59375 212.707031 C 118.324219 213.066406 119.066406 213.414063 119.816406 213.75 C 120.09375 213.871094 120.371094 213.992188 120.648438 214.113281 C 121.136719 214.328125 121.632813 214.53125 122.128906 214.734375 C 123.40625 214.359375 124.792969 214.003906 126.289063 213.671875 C 126.394531 213.648438 126.5 213.628906 126.605469 213.605469 "/>
<path style=" stroke:none;fill-rule:nonzero;fill:rgb(14.498901%,56.498718%,81.199646%);fill-opacity:1;" d="M 129.097656 217.265625 C 129.347656 217.34375 129.597656 217.417969 129.84375 217.492188 C 130.746094 217.765625 131.652344 218.03125 132.574219 218.277344 C 132.730469 218.320313 132.890625 218.359375 133.050781 218.402344 C 133.398438 218.492188 133.757813 218.574219 134.113281 218.664063 C 132.398438 217.722656 130.742188 216.675781 129.148438 215.542969 C 128.03125 215.75 126.960938 215.972656 125.949219 216.207031 C 126.140625 216.277344 126.332031 216.347656 126.523438 216.414063 C 127.371094 216.710938 128.230469 216.992188 129.097656 217.265625 "/>
<path style=" stroke:none;fill-rule:nonzero;fill:rgb(14.498901%,56.498718%,81.199646%);fill-opacity:1;" d="M 155.328125 221.207031 L 155.328125 213.296875 C 152.316406 213.316406 149.382813 213.410156 146.5625 213.5625 C 147.617188 215.214844 148.726563 216.632813 149.882813 217.78125 C 151.675781 219.585938 153.496094 220.710938 155.328125 221.207031 "/>
<path style=" stroke:none;fill-rule:nonzero;fill:rgb(14.498901%,56.498718%,81.199646%);fill-opacity:1;" d="M 155.328125 193.792969 C 149.773438 193.820313 144.378906 194.003906 139.226563 194.320313 C 140.710938 200.980469 142.769531 206.757813 145.191406 211.234375 C 148.433594 211.035156 151.828125 210.917969 155.328125 210.890625 L 155.328125 193.792969 "/>
<path style=" stroke:none;fill-rule:nonzero;fill:rgb(14.498901%,56.498718%,81.199646%);fill-opacity:1;" d="M 171.835938 206.839844 C 173.359375 203.207031 174.664063 199.011719 175.695313 194.390625 C 170.222656 194.03125 164.472656 193.824219 158.535156 193.792969 L 158.535156 210.894531 C 162.402344 210.929688 166.140625 211.078125 169.683594 211.324219 C 170.4375 209.945313 171.160156 208.453125 171.835938 206.839844 "/>
<path style=" stroke:none;fill-rule:nonzero;fill:rgb(14.498901%,56.498718%,81.199646%);fill-opacity:1;" d="M 165.050781 217.78125 C 166.171875 216.652344 167.261719 215.257813 168.300781 213.644531 C 165.179688 213.449219 161.910156 213.332031 158.535156 213.300781 L 158.535156 221.429688 C 160.726563 221.132813 162.90625 219.9375 165.050781 217.78125 "/>
<path style=" stroke:none;fill-rule:nonzero;fill:rgb(14.498901%,56.498718%,81.199646%);fill-opacity:1;" d="M 147.605469 220.039063 C 145.925781 218.339844 144.378906 216.234375 142.96875 213.796875 C 139.707031 214.042969 136.632813 214.375 133.796875 214.777344 C 138.1875 217.464844 143.003906 219.429688 148.113281 220.515625 C 147.945313 220.355469 147.769531 220.207031 147.605469 220.039063 "/>
<path style=" stroke:none;fill-rule:nonzero;fill:rgb(14.498901%,56.498718%,81.199646%);fill-opacity:1;" d="M 140.140625 208.078125 C 138.476563 204.097656 137.078125 199.535156 135.992188 194.539063 C 128.925781 195.066406 122.371094 195.847656 116.535156 196.835938 C 118.519531 200.304688 120.863281 203.503906 123.523438 206.367188 C 125.753906 208.761719 128.199219 210.914063 130.824219 212.804688 C 134.125 212.253906 137.78125 211.804688 141.710938 211.480469 C 141.164063 210.398438 140.640625 209.265625 140.140625 208.078125 "/>
<path style=" stroke:none;fill-rule:nonzero;fill:rgb(14.498901%,56.498718%,81.199646%);fill-opacity:1;" d="M 166.820313 220.515625 C 171.816406 219.453125 176.535156 217.546875 180.847656 214.953125 C 178.09375 214.53125 175.089844 214.179688 171.898438 213.910156 C 170.496094 216.300781 168.96875 218.363281 167.328125 220.039063 C 167.164063 220.207031 166.988281 220.355469 166.820313 220.515625 "/>
<path style=" stroke:none;fill-rule:nonzero;fill:rgb(14.498901%,56.498718%,81.199646%);fill-opacity:1;" d="M 191.410156 206.367188 C 194.023438 203.550781 196.335938 200.40625 198.300781 197 C 192.511719 195.988281 185.984375 195.175781 178.933594 194.621094 C 177.519531 201.128906 175.558594 206.886719 173.15625 211.601563 C 177.019531 211.957031 180.605469 212.433594 183.824219 213.007813 C 186.554688 211.070313 189.097656 208.847656 191.410156 206.367188 "/>
<path style=" stroke:none;fill-rule:nonzero;fill:rgb(14.498901%,56.498718%,81.199646%);fill-opacity:1;" d="M 133.117188 120.929688 C 132.027344 121.214844 130.953125 121.519531 129.890625 121.839844 C 129.796875 121.867188 129.703125 121.894531 129.613281 121.921875 C 128.578125 122.238281 127.5625 122.582031 126.550781 122.933594 C 126.636719 122.953125 126.722656 122.972656 126.808594 122.992188 C 127.675781 123.183594 128.589844 123.367188 129.53125 123.539063 C 131.007813 122.511719 132.53125 121.550781 134.109375 120.683594 C 133.777344 120.765625 133.445313 120.84375 133.117188 120.929688 "/>
<path style=" stroke:none;fill-rule:nonzero;fill:rgb(14.498901%,56.498718%,81.199646%);fill-opacity:1;" d="M 121.941406 124.691406 C 121.117188 125.03125 120.304688 125.378906 119.503906 125.742188 C 119.191406 125.886719 118.886719 126.03125 118.574219 126.179688 C 117.832031 126.527344 117.097656 126.886719 116.371094 127.253906 C 116.054688 127.414063 115.734375 127.582031 115.421875 127.746094 C 114.71875 128.117188 114.023438 128.5 113.339844 128.886719 C 113.035156 129.0625 112.726563 129.234375 112.425781 129.410156 C 111.738281 129.816406 111.0625 130.230469 110.398438 130.652344 C 110.121094 130.828125 109.84375 130.996094 109.574219 131.175781 C 108.867188 131.636719 108.179688 132.109375 107.496094 132.589844 C 107.285156 132.738281 107.066406 132.882813 106.859375 133.035156 C 105.089844 134.316406 103.414063 135.660156 101.839844 137.066406 C 101.769531 137.128906 101.695313 137.195313 101.625 137.261719 C 100.890625 137.921875 100.183594 138.59375 99.496094 139.277344 C 99.460938 139.3125 99.425781 139.351563 99.390625 139.386719 C 103.015625 140.691406 107.511719 141.871094 112.6875 142.882813 C 114.996094 138.441406 117.851563 134.371094 121.175781 130.796875 C 122.964844 128.871094 124.894531 127.09375 126.9375 125.46875 C 125.378906 125.140625 123.933594 124.789063 122.605469 124.410156 C 122.382813 124.503906 122.160156 124.597656 121.941406 124.691406 "/>
<path style=" stroke:none;fill-rule:nonzero;fill:rgb(14.498901%,56.498718%,81.199646%);fill-opacity:1;" d="M 185.726563 122.046875 C 185.53125 121.988281 185.335938 121.929688 185.140625 121.867188 C 184.125 121.558594 183.097656 121.265625 182.058594 120.988281 C 181.652344 120.878906 181.234375 120.785156 180.824219 120.683594 C 182.289063 121.488281 183.707031 122.378906 185.089844 123.324219 C 186.03125 123.140625 186.933594 122.941406 187.792969 122.734375 C 187.105469 122.503906 186.421875 122.265625 185.726563 122.046875 "/>
<path style=" stroke:none;fill-rule:nonzero;fill:rgb(14.498901%,56.498718%,81.199646%);fill-opacity:1;" d="M 193.757813 130.796875 C 197.03125 134.320313 199.851563 138.324219 202.144531 142.6875 C 207.285156 141.644531 211.722656 140.433594 215.253906 139.097656 C 215.230469 139.070313 215.207031 139.046875 215.179688 139.019531 C 214.476563 138.328125 213.746094 137.644531 212.996094 136.976563 C 212.949219 136.9375 212.902344 136.894531 212.859375 136.855469 C 212.097656 136.183594 211.3125 135.523438 210.503906 134.882813 C 210.421875 134.8125 210.335938 134.746094 210.25 134.683594 C 209.519531 134.101563 208.765625 133.535156 207.996094 132.980469 C 207.675781 132.75 207.34375 132.527344 207.019531 132.300781 C 206.457031 131.910156 205.890625 131.523438 205.3125 131.144531 C 204.972656 130.921875 204.625 130.707031 204.277344 130.492188 C 203.695313 130.125 203.101563 129.761719 202.5 129.40625 C 202.140625 129.195313 201.78125 128.992188 201.414063 128.785156 C 200.804688 128.441406 200.1875 128.105469 199.5625 127.773438 C 199.1875 127.578125 198.816406 127.382813 198.4375 127.1875 C 197.796875 126.867188 197.152344 126.554688 196.496094 126.242188 C 196.113281 126.0625 195.734375 125.878906 195.34375 125.703125 C 194.671875 125.398438 193.984375 125.105469 193.296875 124.816406 C 192.914063 124.65625 192.535156 124.492188 192.148438 124.335938 C 192 124.277344 191.847656 124.222656 191.695313 124.164063 C 190.46875 124.539063 189.128906 124.890625 187.691406 125.21875 C 189.847656 126.910156 191.878906 128.773438 193.757813 130.796875 "/>
<path style=" stroke:none;fill-rule:nonzero;fill:rgb(14.498901%,56.498718%,81.199646%);fill-opacity:1;" d="M 149.882813 121.566406 C 148.816406 122.636719 147.78125 123.953125 146.789063 125.460938 C 149.539063 125.605469 152.398438 125.691406 155.328125 125.714844 L 155.328125 118.140625 C 153.496094 118.632813 151.675781 119.761719 149.882813 121.566406 "/>
<path style=" stroke:none;fill-rule:nonzero;fill:rgb(14.498901%,56.498718%,81.199646%);fill-opacity:1;" d="M 143.097656 132.507813 C 141.453125 136.429688 140.0625 141.015625 138.996094 146.078125 C 144.222656 146.40625 149.691406 146.59375 155.328125 146.621094 L 155.328125 128.121094 C 151.894531 128.097656 148.5625 127.984375 145.375 127.789063 C 144.574219 129.230469 143.8125 130.804688 143.097656 132.507813 "/>
<path style=" stroke:none;fill-rule:nonzero;fill:rgb(14.498901%,56.498718%,81.199646%);fill-opacity:1;" d="M 158.535156 146.621094 C 164.554688 146.59375 170.378906 146.382813 175.921875 146.011719 C 174.375 138.722656 172.148438 132.449219 169.507813 127.699219 C 166.019531 127.941406 162.339844 128.082031 158.535156 128.117188 L 158.535156 146.621094 "/>
<path style=" stroke:none;fill-rule:nonzero;fill:rgb(14.498901%,56.498718%,81.199646%);fill-opacity:1;" d="M 158.582031 117.925781 C 158.566406 117.925781 158.550781 117.925781 158.535156 117.925781 L 158.535156 125.714844 C 161.835938 125.683594 165.042969 125.566406 168.105469 125.382813 C 167.128906 123.902344 166.109375 122.617188 165.050781 121.566406 C 162.921875 119.425781 160.757813 118.230469 158.582031 117.925781 "/>
<path style=" stroke:none;fill-rule:nonzero;fill:rgb(14.498901%,56.498718%,81.199646%);fill-opacity:1;" d="M 174.792969 131.269531 C 176.566406 135.503906 178.039063 140.402344 179.152344 145.777344 C 186.339844 145.207031 192.980469 144.363281 198.84375 143.316406 C 196.769531 139.535156 194.273438 136.0625 191.410156 132.980469 C 188.992188 130.382813 186.324219 128.066406 183.449219 126.070313 C 180.28125 126.621094 176.773438 127.082031 172.996094 127.421875 C 173.621094 128.636719 174.222656 129.914063 174.792969 131.269531 "/>
<path style=" stroke:none;fill-rule:nonzero;fill:rgb(14.498901%,56.498718%,81.199646%);fill-opacity:1;" d="M 167.328125 119.308594 C 168.910156 120.90625 170.371094 122.867188 171.714844 125.121094 C 174.804688 124.863281 177.71875 124.527344 180.410156 124.125 C 176.214844 121.664063 171.648438 119.855469 166.820313 118.828125 C 166.988281 118.988281 167.164063 119.140625 167.328125 119.308594 "/>
<path style=" stroke:none;fill-rule:nonzero;fill:rgb(14.498901%,56.498718%,81.199646%);fill-opacity:1;" d="M 123.523438 132.980469 C 120.617188 136.105469 118.089844 139.644531 115.996094 143.488281 C 121.902344 144.507813 128.570313 145.316406 135.761719 145.855469 C 137.210938 138.789063 139.292969 132.566406 141.882813 127.546875 C 138.039063 127.234375 134.453125 126.800781 131.203125 126.269531 C 128.4375 128.222656 125.859375 130.46875 123.523438 132.980469 "/>
<path style=" stroke:none;fill-rule:nonzero;fill:rgb(14.498901%,56.498718%,81.199646%);fill-opacity:1;" d="M 148.113281 118.828125 C 143.175781 119.878906 138.515625 121.746094 134.242188 124.296875 C 137.011719 124.679688 140 124.992188 143.160156 125.230469 C 144.527344 122.925781 146.011719 120.933594 147.605469 119.308594 C 147.769531 119.140625 147.945313 118.988281 148.113281 118.828125 "/>
</g>
</svg>
