<?xml version="1.0" encoding="utf-8"?>
<!-- Generator: Adobe Illustrator 16.2.0, SVG Export Plug-In . SVG Version: 6.00 Build 0)  -->
<!DOCTYPE svg PUBLIC "-//W3C//DTD SVG 1.1//EN" "http://www.w3.org/Graphics/SVG/1.1/DTD/svg11.dtd">
<svg version="1.1" id="Layer_1" xmlns="http://www.w3.org/2000/svg" xmlns:xlink="http://www.w3.org/1999/xlink" x="0px" y="0px"
	 width="655.989px" height="183.487px" viewBox="0 0 655.989 183.487" enable-background="new 0 0 655.989 183.487"
	 xml:space="preserve">
<g>
	<path fill="#ED4D8B" d="M172.418,87.176c4.557-2.359,9.216-3.54,13.977-3.54s8.86,0.743,12.299,2.228
		c3.438,1.485,6.459,3.611,9.063,6.378c5.655,6.145,8.484,13.917,8.484,23.315c0,10.296-3.073,18.597-9.216,24.903
		c-5.9,6.063-13.245,9.094-22.034,9.094c-7.731,0-14.099-2.015-19.104-6.042c-5.615-4.558-8.423-10.844-8.423-18.86V57.818h14.954
		V87.176z M172.418,124.468c0,7.162,4.456,10.742,13.367,10.742c4.354,0,8.016-1.912,10.986-5.736
		c3.011-3.906,4.517-8.769,4.517-14.588c0-5.859-1.587-10.274-4.761-13.245c-2.849-2.645-6.674-3.967-11.475-3.967
		c-2.89,0-6.083,0.977-9.583,2.93c-1.099,0.61-2.116,1.281-3.052,2.014V124.468z"/>
	<path fill="#ED4D8B" d="M264.597,144.854c-5.778,3.135-11.007,4.7-15.686,4.7c-4.68,0-8.688-0.438-12.024-1.312
		c-3.337-0.875-6.165-2.168-8.484-3.877c-4.721-3.457-7.08-8.462-7.08-15.015c0-5.859,2.889-10.742,8.667-14.647
		c6.266-4.232,14.771-6.348,25.513-6.348l2.441,0.061c0.488,0.041,1.038,0.071,1.648,0.092s1.16,0.071,1.648,0.152
		c-0.326-6.51-3.134-10.314-8.423-11.414c-1.75-0.365-3.611-0.549-5.585-0.549s-3.906,0.174-5.798,0.52
		c-1.893,0.346-3.734,0.803-5.524,1.373c-3.947,1.262-6.775,2.706-8.484,4.333l-0.183-0.122l-1.831-13.489
		c7.202-3.784,15.076-5.676,23.621-5.676c13.265,0,21.749,4.782,25.452,14.343c1.18,3.053,1.77,6.491,1.77,10.315v22.095
		c0,4.721,1.668,7.935,5.005,9.644l-11.047,10.132C267.893,148.943,266.021,147.174,264.597,144.854z M261.301,119.646
		c-1.099-0.203-2.238-0.306-3.418-0.306h-2.441c-8.993,0-14.709,1.994-17.151,5.982c-0.732,1.18-1.099,2.421-1.099,3.723
		c0,1.303,0.234,2.451,0.702,3.449c0.467,0.996,1.251,1.82,2.35,2.471c2.115,1.221,5.259,1.832,9.43,1.832s8.066-0.997,11.688-2.991
		c-0.041-0.447-0.061-0.915-0.061-1.403V119.646z"/>
	<path fill="#ED4D8B" d="M303.432,87.176c4.557-2.359,9.216-3.54,13.977-3.54s8.86,0.743,12.299,2.228
		c3.438,1.485,6.459,3.611,9.063,6.378c5.655,6.145,8.483,13.917,8.483,23.315c0,10.296-3.072,18.597-9.216,24.903
		c-5.9,6.063-13.245,9.094-22.034,9.094c-7.731,0-14.099-2.015-19.104-6.042c-5.615-4.558-8.423-10.844-8.423-18.86V57.818h14.954
		V87.176z M303.432,124.468c0,7.162,4.456,10.742,13.367,10.742c4.354,0,8.016-1.912,10.986-5.736
		c3.011-3.906,4.517-8.769,4.517-14.588c0-5.859-1.587-10.274-4.761-13.245c-2.849-2.645-6.674-3.967-11.475-3.967
		c-2.89,0-6.083,0.977-9.583,2.93c-1.099,0.61-2.116,1.281-3.052,2.014V124.468z"/>
	<path fill="#ED4D8B" d="M347.637,169.879l4.028-3.235c6.063-4.924,11.087-12.187,15.075-21.79l2.809-6.774l-23.377-53.223h17.09
		l14.648,36.865l13.611-36.865H409.1c-2.117,2.93-4.701,8.383-7.752,16.357l-9.155,22.645
		c-12.248,28.808-21.851,45.979-28.809,51.513L347.637,169.879z"/>
	<path fill="#FDBE89" d="M408.809,87.725l-0.121-2.869h51.574l-31.127,51.574h23.986c3.58,0,6.002-0.508,7.264-1.525l-4.029,14.648
		c-1.791-0.122-3.947-0.224-6.469-0.306l-7.568-0.365c-4.68-0.164-9.096-0.244-13.246-0.244c-9.195,0-17.76,0.305-25.695,0.915
		l31.922-52.734h-15.137c-4.721,0-8.586,0.529-11.598,1.587c0.164-3.174,0.244-5.635,0.244-7.385V87.725z"/>
	<path fill="#FDBE89" d="M459.668,117.083c0-4.476,0.764-8.759,2.289-12.849c1.525-4.088,3.713-7.659,6.561-10.711
		c6.227-6.592,14.303-9.888,24.23-9.888c9.889,0,17.742,3.113,23.561,9.338c5.574,5.942,8.361,13.652,8.361,23.132
		c0,9.481-2.869,17.334-8.605,23.56c-6.063,6.592-14.1,9.888-24.109,9.888c-10.336,0-18.432-3.235-24.291-9.705
		C462.333,133.95,459.668,126.36,459.668,117.083z M474.5,116.717c0,2.563,0.426,5.046,1.281,7.446
		c0.854,2.401,2.074,4.455,3.662,6.164c3.377,3.703,7.813,5.555,13.305,5.555c5.088,0,9.096-1.811,12.025-5.432
		c2.848-3.5,4.271-8.057,4.271-13.673c0-5.695-1.465-10.293-4.395-13.793c-3.133-3.744-7.426-5.615-12.879-5.615
		c-5.533,0-9.867,1.994-13,5.98C475.924,107.012,474.5,111.468,474.5,116.717z"/>
	<path fill="#FDBE89" d="M546.293,140.826c0,3.58,0.162,6.186,0.488,7.813h-15.32V84.856h14.832v5.432
		c5.371-4.435,11.107-6.653,17.211-6.653c6.674,0,12.004,2.269,15.992,6.805c3.986,4.538,5.98,10.508,5.98,17.915v24.292
		c0,6.877,0.102,11.007,0.305,12.39c0.205,1.384,0.479,2.279,0.824,2.686c0.346,0.407,0.641,0.773,0.885,1.099l-0.121,0.244
		c-3.297-0.285-5.697-0.427-7.203-0.427h-4.271c-1.303,0-3.053,0.061-5.25,0.183v-33.265c0-11.922-3.621-17.883-10.863-17.883
		c-5.371,0-9.867,2.768-13.488,8.301V140.826z"/>
	<path fill="#FDBE89" d="M593.122,117.266c0-4.76,0.814-9.175,2.441-13.244c1.629-4.068,3.928-7.629,6.898-10.682
		c6.348-6.469,14.648-9.704,24.902-9.704c8.666,0,15.625,2.869,20.873,8.606c5.168,5.534,7.752,12.493,7.752,20.874
		c0,3.215-0.244,5.413-0.732,6.593c-4.068,1.139-12.35,1.709-24.842,1.709H608.93c1.059,4.354,3.52,7.741,7.385,10.162
		c3.867,2.421,8.891,3.631,15.076,3.631c6.471,0,12.023-1.159,16.662-3.479c1.221-0.61,2.137-1.18,2.748-1.709
		c-0.082,1.709-0.184,3.459-0.307,5.249l-0.67,9.521c-3.094,2.116-8.098,3.581-15.016,4.395c-2.035,0.244-3.988,0.366-5.859,0.366
		c-10.336,0-18.881-3.011-25.635-9.033C596.52,134.458,593.122,126.706,593.122,117.266z M639.752,109.576
		c-1.668-8.748-6.428-13.123-14.281-13.123c-6.186,0-10.885,2.666-14.1,7.996c-0.977,1.627-1.729,3.418-2.258,5.371
		c0.977,0.041,2.176,0.082,3.602,0.121h4.516c1.506,0.041,2.951,0.062,4.334,0.062h3.479c2.076,0,4.109-0.021,6.104-0.062
		l5.006-0.183C637.495,109.719,638.696,109.658,639.752,109.576z"/>
</g>
<g>
	<g transform="translate(0.000000,695.000000) scale(0.100000,-0.100000)">
		<g>
			<path fill="#ED4D8B" d="M390.107,6456.122c-58.96-7.559-123.75-37.246-180.581-82.637
				c-43.647-34.717-96.597-98.34-126.465-152.266c-65.371-117.539-80.688-243.633-45.776-379.6
				c25.405-99.121,88.643-218.604,173.789-328.574c73.916-95.254,148.394-168.193,312.5-305.527
				c109.194-91.357,111.133-92.91,118.706-92.334l7.759,0.596l14.155,30.049c37.632,79.941,91.167,163.34,138.496,215.508
				c20.752,22.9,56.255,54.902,103.384,92.91c85.161,68.867,135.01,120.078,171.865,176.533
				c18.813,29.092,29.092,47.52,40.542,74.082c19.199,44.824,26.577,76.24,29.873,127.451
				c5.229,86.895-13.193,151.094-61.309,212.969c-49.067,63.242-120.259,106.494-192.598,116.777
				c-17.842,2.52-48.311,3.301-94.082,2.324l-34.917-0.771l-1.353,7.568c-0.776,4.268-3.105,17.646-5.244,29.863
				c-7.178,40.547-25.02,86.133-46.553,118.525c-20.176,30.439-53.926,64.775-83.989,85.352
				c-53.145,36.27-117.163,54.502-190.669,53.926C421.728,6458.651,400.205,6457.479,390.107,6456.122z M459.946,6292.206
				c22.109-2.52,36.86-6.592,53.73-14.531c56.245-26.396,87.671-77.012,83.203-133.848c-2.7-35.879-12.402-59.746-42.661-105.322
				c-30.84-46.162-37.056-64.014-32.588-92.91c5.044-32.012,26.567-55.098,59.155-63.838c12.993-3.477,24.443-3.281,40.161,0.4
				c18.228,4.268,25.596,9.307,61.489,42.871c44.023,40.928,64.79,55.283,94.072,65.371c80.889,27.734,161.377-0.4,193.389-67.305
				c8.726-18.242,11.445-30.078,13.193-54.902c2.324-34.912-5.63-72.354-22.505-108.623c-14.546-30.635-29.092-51.211-54.121-77.002
				c-25.41-25.811-50.039-44.814-111.919-86.123c-58.379-39.18-78.164-54.307-107.275-82.842
				c-44.214-43.232-66.714-83.779-80.879-146.445c-2.515-11.045-5.234-20.557-5.82-21.133c-0.576-0.576-5.034,3.682-10.078,9.492
				c-13.589,15.908-46.167,47.92-84.956,83.223c-65.181,59.355-108.052,106.104-172.641,189.121
				c-21.338,27.148-56.831,80.498-73.896,110.566c-51.797,91.758-79.341,193.008-72.549,267.295
				c9.302,105.508,66.729,199.59,158.086,259.141c17.065,11.26,39.761,20.557,59.746,24.443
				C430.078,6294.345,437.446,6294.745,459.946,6292.206z"/>
		</g>
	</g>
	<circle fill="#FDBE89" cx="46.613" cy="21.11" r="21.109"/>
	<circle fill="#ED4D8B" cx="105.809" cy="62.997" r="13.308"/>
</g>
</svg>
